# 
# Wavefront OBJ file
# Converted by the DEEP Exploration Deep Exploration 6.3 x64 6.3.3.8069
# Right Hemisphere, LTD
# http://www.righthemisphere.com/
# 
mtllib Dinning Table Ò260623.mtl
# object Rectangle001
g Rectangle001
v -39.29130 19.68500 29.44880
v -0.07740 19.68500 29.44880
v -0.07740 19.68500 27.83460
v -39.29130 19.68500 27.83460
v -39.37010 -19.60630 29.44880
v -39.37010 19.60630 29.44880
v -39.37010 19.60630 27.83460
v -39.37010 -19.60630 27.83460
v -0.07740 -19.68500 29.44880
v -39.29130 -19.68500 29.44880
v -39.29130 -19.68500 27.83460
v -0.07740 -19.68500 27.83460
v 0.00130 19.60630 29.44880
v 0.00130 -19.60630 29.44880
v 0.00130 -19.60630 27.83460
v 0.00130 19.60630 27.83460
v -39.29130 -19.60630 27.75590
v -39.29130 19.60630 27.75590
v -0.07740 19.60630 27.75590
v -0.07740 -19.60630 27.75590
v -0.07740 19.60630 29.52760
v -39.29130 19.60630 29.52760
v -39.29130 -19.60630 29.52760
v -0.07740 -19.60630 29.52760
v 0.08010 19.68500 29.44880
v 39.29400 19.68500 29.44880
v 39.29400 19.68500 27.83460
v 0.08010 19.68500 27.83460
v 39.29400 -19.68500 29.44880
v 0.08010 -19.68500 29.44880
v 0.08010 -19.68500 27.83460
v 39.29400 -19.68500 27.83460
v 39.37270 19.60630 29.44880
v 39.37270 -19.60630 29.44880
v 39.37270 -19.60630 27.83460
v 39.37270 19.60630 27.83460
v 0.08010 -19.60630 27.75590
v 0.08010 19.60630 27.75590
v 39.29400 19.60630 27.75590
v 39.29400 -19.60630 27.75590
v 39.29400 19.60630 29.52760
v 0.08010 19.60630 29.52760
v 0.08010 -19.60630 29.52760
v 39.29400 -19.60630 29.52760
# 44 verticies
vt 0.45619 0.02614
vt 0.06405 0.02614
vt 0.06405 -0.00614
vt 0.45619 -0.00614
vt 0.20106 0.02614
vt -0.19106 0.02614
vt -0.19106 -0.00614
vt 0.20106 -0.00614
vt -0.05405 0.02614
vt -0.44619 0.02614
vt -0.44619 -0.00614
vt -0.05405 -0.00614
vt 0.45619 -0.38213
vt 0.45619 0.40213
vt 0.06405 0.40213
vt 0.06405 -0.38213
vt -0.05405 0.40213
vt -0.44619 0.40213
vt -0.44619 -0.38213
vt -0.05405 -0.38213
vt 0.20185 -0.00614
vt 0.20106 -0.00772
vt -0.19106 -0.00772
vt -0.19185 -0.00614
vt -0.19185 -0.00614
vt 0.20185 0.02614
vt 0.20106 0.02772
vt -0.19106 0.02772
vt -0.19185 0.02614
vt -0.19185 0.02614
vt 0.06405 0.40370
vt 0.45619 0.40370
vt -0.44619 0.40370
vt -0.05405 0.40370
vt 0.45619 -0.38370
vt 0.06405 -0.38370
vt -0.05405 -0.38370
vt -0.44619 -0.38370
vt 0.94988 0.03120
vt 0.55774 0.03120
vt 0.55774 -0.00108
vt 0.94988 -0.00108
vt 1.08846 0.03120
vt 0.69634 0.03120
vt 0.69634 -0.00108
vt 1.08846 -0.00108
vt 1.22706 0.03120
vt 0.83492 0.03120
vt 0.83492 -0.00108
vt 1.22706 -0.00108
vt 0.94988 -0.37707
vt 0.94988 0.40719
vt 0.55774 0.40719
vt 0.55774 -0.37707
vt 1.22706 0.40719
vt 0.83492 0.40719
vt 0.83492 -0.37707
vt 1.22706 -0.37707
vt 0.55774 0.40876
vt 0.55695 0.40719
vt 0.69634 -0.00266
vt 0.69555 -0.00108
vt 1.08846 -0.00266
vt 1.08925 -0.00108
vt 0.55695 -0.37707
vt 0.55774 -0.37864
vt 1.22706 0.40876
vt 1.22785 0.40719
vt 0.69634 0.03278
vt 0.69555 0.03120
vt 1.08925 0.03120
vt 1.08846 0.03278
vt 1.22785 -0.37707
vt 1.22706 -0.37864
vt 0.94988 0.40876
vt 0.83492 0.40876
vt 0.55695 0.03120
vt 0.55695 -0.00108
vt 0.94988 -0.37864
vt 1.22785 -0.00108
vt 1.22785 0.03120
vt 0.83492 -0.37864
# 82 texture verticies
vn 0.00000 1.00000 0.00000
vn -1.00000 0.00000 0.00000
vn 0.00000 -1.00000 0.00000
vn 1.00000 0.00000 0.00000
vn 0.00000 0.00000 -1.00000
vn 0.00000 0.00000 1.00000
vn 0.57738 0.57728 -0.57738
vn -0.57738 0.57728 -0.57738
vn -0.57738 -0.57728 -0.57738
vn 0.57738 -0.57728 -0.57738
vn 0.57738 0.57728 0.57738
vn -0.57738 0.57728 0.57738
vn -0.57738 -0.57728 0.57738
vn 0.57738 -0.57728 0.57738
vn 0.00000 0.70711 -0.70711
vn -0.70711 0.70711 0.00000
vn 0.00000 0.70711 0.70711
vn 0.70711 0.70711 0.00000
vn -0.70711 0.00000 -0.70711
vn -0.70711 -0.70711 0.00000
vn -0.70711 0.00000 0.70711
vn 0.00000 -0.70711 -0.70711
vn 0.70711 -0.70711 0.00000
vn 0.00000 -0.70711 0.70711
vn 0.70711 0.00000 -0.70711
vn 0.70711 0.00000 0.70711
vn 0.57728 0.57738 -0.57738
vn 0.57728 -0.57738 -0.57738
vn 0.57728 0.57738 0.57738
vn 0.57728 -0.57738 0.57738
# 30 normals
usemtl Wood
f  1/1/1 2/2/1 3/3/1
f  3/3/1 4/4/1 1/1/1
f  5/5/2 6/6/2 7/7/2
f  7/7/2 8/8/2 5/5/2
f  9/9/3 10/10/3 11/11/3
f  11/11/3 12/12/3 9/9/3
f  13/5/4 14/6/4 15/7/4
f  15/7/4 16/8/4 13/5/4
f  17/13/5 18/14/5 19/15/5
f  19/15/5 20/16/5 17/13/5
f  21/17/6 22/18/6 23/19/6
f  23/19/6 24/20/6 21/17/6
f  3/21/7 16/8/7 19/22/7
f  18/23/8 7/7/8 4/24/8
f  17/22/9 11/21/9 8/8/9
f  15/7/10 12/25/10 20/23/10
f  2/26/11 21/27/11 13/5/11
f  6/6/12 22/28/12 1/29/12
f  10/26/13 23/27/13 5/5/13
f  14/6/14 24/28/14 9/30/14
f  3/31/15 19/15/15 18/14/15
f  18/14/15 4/32/15 3/31/15
f  4/24/16 7/7/16 6/6/16
f  6/6/16 1/29/16 4/24/16
f  1/33/17 22/18/17 21/17/17
f  21/17/17 2/34/17 1/33/17
f  2/26/18 13/5/18 16/8/18
f  16/8/18 3/21/18 2/26/18
f  7/7/19 18/23/19 17/22/19
f  17/22/19 8/8/19 7/7/19
f  8/8/20 11/21/20 10/26/20
f  10/26/20 5/5/20 8/8/20
f  5/5/21 23/27/21 22/28/21
f  22/28/21 6/6/21 5/5/21
f  11/35/22 17/13/22 20/16/22
f  20/16/22 12/36/22 11/35/22
f  12/25/23 15/7/23 14/6/23
f  14/6/23 9/30/23 12/25/23
f  9/37/24 24/20/24 23/19/24
f  23/19/24 10/38/24 9/37/24
f  15/7/25 20/23/25 19/22/25
f  19/22/25 16/8/25 15/7/25
f  13/5/26 21/27/26 24/28/26
f  24/28/26 14/6/26 13/5/26
f  25/39/1 26/40/1 27/41/1
f  27/41/1 28/42/1 25/39/1
f  14/43/2 13/44/2 16/45/2
f  16/45/2 15/46/2 14/43/2
f  29/47/3 30/48/3 31/49/3
f  31/49/3 32/50/3 29/47/3
f  33/43/4 34/44/4 35/45/4
f  35/45/4 36/46/4 33/43/4
f  37/51/5 38/52/5 39/53/5
f  39/53/5 40/54/5 37/51/5
f  41/55/6 42/56/6 43/57/6
f  43/57/6 44/58/6 41/55/6
f  27/59/27 36/60/27 39/53/27
f  38/61/8 16/45/8 28/62/8
f  37/63/9 31/64/9 15/46/9
f  35/65/28 32/66/28 40/54/28
f  26/67/29 41/55/29 33/68/29
f  13/44/12 42/69/12 25/70/12
f  30/71/13 43/72/13 14/43/13
f  34/73/30 44/58/30 29/74/30
f  27/59/15 39/53/15 38/52/15
f  38/52/15 28/75/15 27/59/15
f  28/62/16 16/45/16 13/44/16
f  13/44/16 25/70/16 28/62/16
f  25/76/17 42/56/17 41/55/17
f  41/55/17 26/67/17 25/76/17
f  26/40/18 33/77/18 36/78/18
f  36/78/18 27/41/18 26/40/18
f  16/45/19 38/61/19 37/63/19
f  37/63/19 15/46/19 16/45/19
f  15/46/20 31/64/20 30/71/20
f  30/71/20 14/43/20 15/46/20
f  14/43/21 43/72/21 42/69/21
f  42/69/21 13/44/21 14/43/21
f  31/79/22 37/51/22 40/54/22
f  40/54/22 32/66/22 31/79/22
f  32/50/23 35/80/23 34/81/23
f  34/81/23 29/47/23 32/50/23
f  29/74/24 44/58/24 43/57/24
f  43/57/24 30/82/24 29/74/24
f  35/65/25 40/54/25 39/53/25
f  39/53/25 36/60/25 35/65/25
f  33/68/26 41/55/26 44/58/26
f  44/58/26 34/73/26 33/68/26
# object Line004
g Line004
v 39.37010 -19.60630 27.63760
v 39.37010 -19.22420 27.63760
v 39.37010 -19.22420 22.11760
v 39.37010 -19.60630 22.11760
v 39.29130 -19.68500 27.63760
v 39.29130 -19.68500 22.11760
v 38.90920 -19.68500 27.63760
v 38.90920 -19.68500 22.11760
v 39.29130 -15.35430 27.67750
v 39.29130 -15.35430 27.63700
v 36.29920 -15.35430 27.63700
v 36.29920 -15.35430 27.67750
v 39.37010 -19.22420 27.67750
v 39.37010 -19.22420 27.63700
v 39.37010 -15.43310 27.63700
v 39.37010 -15.43310 27.67750
v 38.90920 -19.68500 27.67750
v 38.90920 -19.68500 27.63700
v 39.29130 -19.68500 27.63700
v 39.29130 -19.68500 27.67750
v 36.22050 -15.43310 27.67750
v 36.22050 -15.43310 27.63700
v 36.22050 -19.60630 27.63700
v 36.22050 -19.60630 27.67750
v 39.29130 -19.60630 27.75620
v 39.29130 -19.30290 27.75620
v 38.98790 -19.60630 27.75620
v 36.29920 -15.43310 27.75620
v 39.29130 -15.43310 27.75620
v 39.37010 -19.60630 27.67750
v 36.29920 -19.68500 27.67750
v 36.29920 -19.60630 27.75620
v 39.37010 -19.60630 27.63700
v 36.29920 -19.68500 27.63700
# 34 verticies
vt 2.20450 -2.31930
vt 2.20450 3.20070
vt 2.58660 3.20070
vt 2.58660 -2.31930
vt 2.66530 3.20070
vt 2.66530 -2.31930
vt -0.99610 -2.31930
vt -0.99610 3.20070
vt -0.61390 3.20070
vt -0.61390 -2.31930
vt -1.66530 -2.31930
vt -1.66530 3.20070
vt -1.20450 3.20070
vt -1.20450 -2.31930
vt 2.07480 -1.58660
vt 1.99610 -1.66530
vt 1.61390 -1.66530
vt 2.07480 -1.20450
vt -0.61390 -1.66530
vt -0.99610 -1.66530
vt -1.07480 -1.58660
vt -1.07480 -1.20450
vt 1.99610 3.20010
vt -0.99610 3.20010
vt -0.99610 3.24060
vt 1.99610 3.24060
vt 2.58660 3.20010
vt -1.20450 3.20010
vt -1.20450 3.24060
vt 2.58660 3.24060
vt 1.61390 3.20010
vt 1.61390 3.24060
vt -1.58660 3.20010
vt -1.58660 3.24060
vt 1.69270 -1.58660
vt 1.99610 -1.28320
vt 1.99610 -1.58660
vt -1.58660 3.31930
vt -1.66540 3.24060
vt -1.07480 3.24060
vt -0.99610 3.31930
vt 1.99610 3.31930
vt -1.07480 3.20010
vt 1.99610 2.58660
vt 2.07480 2.58660
vt -1.66540 3.20010
vt 1.69270 3.31930
vt -0.99610 2.58660
vt -0.99610 -1.58660
vt -1.07480 2.58660
vt -1.28320 3.31930
vt -0.99610 2.66540
vt -0.99610 -1.66540
vt 1.99610 -1.66540
vt -0.61390 -1.66540
vt 1.99610 2.66540
# 56 texture verticies
vn 1.00000 0.00000 0.00000
vn 0.70711 -0.70711 0.00000
vn 0.00000 -1.00000 0.00000
vn -0.70711 0.70711 0.00000
vn 0.00000 0.00000 -1.00000
vn 0.00000 0.00000 1.00000
vn -1.00000 0.00000 0.00000
vn 0.00000 1.00000 0.00000
vn 0.57735 -0.57735 -0.57735
vn -0.57735 -0.57735 -0.57735
vn -0.57735 0.57735 -0.57735
vn 0.57735 0.57735 -0.57735
vn 0.00000 -0.70711 -0.70711
vn -0.70711 -0.70711 0.00000
vn -0.70711 -0.00000 -0.70711
vn 0.00000 0.70711 -0.70711
vn 0.70711 0.70711 0.00000
vn 0.70711 0.00000 -0.70711
vn 0.00000 0.00000 1.00000
# 19 normals
usemtl Steel
f  47/83/31 46/84/31 45/85/31
f  45/85/31 48/86/31 47/83/31
f  48/86/32 45/85/32 49/87/32
f  49/87/32 50/88/32 48/86/32
f  50/89/33 49/90/33 51/91/33
f  51/91/33 52/92/33 50/89/33
f  52/93/34 51/94/34 46/95/34
f  46/95/34 47/96/34 52/93/34
f  48/97/35 50/98/35 52/99/35
f  52/99/35 47/100/35 48/97/35
f  51/101/36 49/102/36 45/103/36
f  45/103/36 46/104/36 51/101/36
f  55/105/33 54/106/33 53/107/33
f  53/107/33 56/108/33 55/105/33
f  59/109/37 58/110/37 57/111/37
f  57/111/37 60/112/37 59/109/37
f  63/105/38 62/113/38 61/114/38
f  61/114/38 64/108/38 63/105/38
f  67/109/31 66/115/31 65/116/31
f  65/116/31 68/112/31 67/109/31
f  71/117/35 70/118/35 69/119/35
f  72/120/39 65/116/39 56/121/39
f  53/107/40 60/122/40 73/123/40
f  74/116/41 64/121/41 69/120/41
f  76/123/42 75/107/42 68/122/42
f  73/123/43 72/124/43 56/108/43
f  56/108/43 53/107/43 73/123/43
f  54/106/44 59/125/44 60/122/44
f  60/122/44 53/107/44 54/106/44
f  57/100/45 70/118/45 73/126/45
f  73/126/45 60/127/45 57/100/45
f  77/115/34 63/128/34 64/121/34
f  64/121/34 74/116/34 77/115/34
f  71/129/46 69/124/46 64/108/46
f  64/108/46 61/114/46 71/129/46
f  78/106/47 67/125/47 68/122/47
f  68/122/47 75/107/47 78/106/47
f  72/130/48 76/131/48 68/103/48
f  68/103/48 65/132/48 72/130/48
f  58/110/37 77/115/37 74/116/37
f  74/116/37 57/111/37 58/110/37
f  62/113/38 78/106/38 75/107/38
f  75/107/38 61/114/38 62/113/38
f  71/117/35 76/131/35 72/130/35
f  71/117/35 72/130/35 73/126/35
f  71/117/35 73/126/35 70/118/35
f  74/116/45 69/120/45 70/133/45
f  70/133/45 57/111/45 74/116/45
f  61/114/46 75/107/46 76/123/46
f  76/123/46 71/129/46 61/114/46
f  55/128/32 56/121/32 65/116/32
f  65/116/32 66/115/32 55/128/32
f  58/104/36 59/132/36 54/134/49
f  63/135/36 77/103/36 58/104/36
f  63/135/36 58/104/36 54/134/49
f  67/97/49 78/136/36 62/137/36
f  67/97/49 62/137/36 63/135/36
f  67/97/49 63/135/36 54/134/49
f  66/127/49 67/97/49 54/134/49
f  55/138/49 66/127/49 54/134/49
# object Rectangle005
g Rectangle005
v 39.29130 -15.35430 0.07870
v 39.29130 -15.35430 22.11760
v 36.29920 -15.35430 22.11760
v 36.29920 -15.35430 0.07870
v 39.37010 -19.22420 0.07870
v 39.37010 -19.22420 22.11760
v 39.37010 -15.43310 22.11760
v 39.37010 -15.43310 0.07870
v 38.90920 -19.68500 0.07870
v 38.90920 -19.68500 22.11760
v 39.29130 -19.68500 22.11760
v 39.29130 -19.68500 0.07870
v 36.22050 -15.43310 0.07870
v 36.22050 -15.43310 22.11760
v 36.22050 -19.60630 22.11760
v 36.22050 -19.60630 0.07870
v 39.29130 -19.60630 0.00000
v 39.29130 -19.30290 0.00000
v 38.98790 -19.60630 0.00000
v 36.29920 -15.43310 0.00000
v 39.29130 -15.43310 0.00000
v 39.37010 -19.60630 0.07870
v 36.29920 -19.68500 0.07870
v 36.29920 -19.60630 0.00000
v 39.37010 -19.60630 22.11760
v 36.29920 -19.68500 22.11760
v 39.29130 -15.35430 27.63740
v 36.29920 -15.35430 27.63740
v 36.29920 -19.68500 27.63740
v 38.90920 -19.68500 27.63740
v 36.22050 -15.43310 27.63740
v 36.22050 -19.60630 27.63740
v 39.37010 -15.43310 27.63740
v 39.37010 -19.22420 27.63740
# 34 verticies
vt 0.08799 0.79073
vt 0.08799 0.84853
vt -0.13240 0.84853
vt -0.13240 0.79073
vt -0.07799 -0.08435
vt -0.07799 -0.15759
vt 0.14240 -0.15759
vt 0.14240 -0.08435
vt -0.07799 0.87095
vt -0.07799 0.86357
vt 0.14240 0.86357
vt 0.14240 0.87095
vt 0.08799 -0.18127
vt 0.08799 -0.10065
vt -0.13240 -0.10065
vt -0.13240 -0.18127
vt -0.42234 -0.16695
vt -0.42448 -0.15952
vt -0.42527 -0.16538
vt -0.13319 -0.10025
vt -0.13240 -0.09872
vt -0.13240 0.85046
vt -0.13319 0.84894
vt 0.14240 -0.16497
vt 0.14240 -0.16690
vt 0.14319 -0.16538
vt 0.14319 0.81274
vt 0.14240 0.81314
vt 0.14240 0.81122
vt -0.41447 -0.08476
vt -0.38557 -0.10025
vt -0.38536 -0.09872
vt -0.41426 -0.08324
vt 0.08799 0.85046
vt -0.42504 -0.15759
vt -0.41523 -0.08435
vt -0.07799 -0.16497
vt -0.07799 -0.16690
vt -0.42547 -0.16690
vt -0.42178 -0.16888
vt -0.07799 0.81314
vt -0.07799 0.81122
vt -0.39637 -0.18087
vt -0.39561 -0.18127
vt -0.38481 -0.10065
vt 0.14319 0.79073
vt 0.14319 0.84853
vt -0.13319 0.86357
vt -0.13319 0.81314
vt 0.14319 -0.18127
vt 0.14319 -0.10065
vt 0.14319 0.85046
vt 0.08799 -0.09872
vt -0.13319 0.81122
vt -0.42603 -0.16497
vt -0.39657 -0.18239
vt 0.43178 -0.16888
vt 0.43547 -0.16690
vt 0.43603 -0.16497
vt 0.43504 -0.15759
vt 0.14319 -0.09872
vt -0.13319 -0.15759
vt -0.13319 -0.08435
vt -0.13319 -0.16888
vt -0.07799 -0.16888
# 65 texture verticies
vn 0.00000 1.00000 0.00000
vn 1.00000 0.00000 0.00000
vn 0.00000 -1.00000 0.00000
vn -1.00000 0.00000 0.00000
vn 0.00000 0.00000 -1.00000
vn -0.57735 0.57735 -0.57735
vn 0.57735 0.57735 -0.57735
vn 0.57738 -0.57738 -0.57728
vn -0.57738 -0.57738 -0.57728
vn 0.00000 0.70711 -0.70711
vn 0.70711 0.70711 0.00000
vn 0.70711 0.00000 -0.70711
vn 0.70711 -0.70711 0.00000
vn 0.00000 -0.70711 -0.70711
vn -0.70711 -0.70711 0.00000
vn -0.70711 -0.00000 -0.70711
vn -0.70711 0.70711 0.00000
vn -0.00000 -0.70711 -0.70711
vn 0.00000 0.00000 1.00000
# 19 normals
usemtl Wood
f  81/139/50 80/140/50 79/141/50
f  79/141/50 82/142/50 81/139/50
f  85/143/51 84/144/51 83/145/51
f  83/145/51 86/146/51 85/143/51
f  89/147/52 88/148/52 87/149/52
f  87/149/52 90/150/52 89/147/52
f  93/151/53 92/152/53 91/153/53
f  91/153/53 94/154/53 93/151/53
f  97/155/54 96/156/54 95/157/54
f  98/158/55 91/153/55 82/159/55
f  79/141/56 86/160/56 99/161/56
f  100/162/57 90/163/57 95/164/57
f  102/165/58 101/166/58 94/167/58
f  99/168/59 98/169/59 82/170/59
f  82/170/59 79/171/59 99/168/59
f  80/140/60 85/172/60 86/160/60
f  86/160/60 79/141/60 80/140/60
f  83/173/61 96/156/61 99/168/61
f  99/168/61 86/174/61 83/173/61
f  103/175/62 89/176/62 90/163/62
f  90/163/62 100/162/62 103/175/62
f  97/155/63 95/157/63 90/177/63
f  90/177/63 87/178/63 97/155/63
f  104/179/64 93/180/64 94/167/64
f  94/167/64 101/166/64 104/179/64
f  98/169/65 102/181/65 94/182/65
f  94/182/65 91/183/65 98/169/65
f  81/139/50 106/184/50 105/185/50
f  105/185/50 80/140/50 81/139/50
f  88/148/52 108/186/52 107/187/52
f  107/187/52 104/179/52 88/148/52
f  93/151/53 110/188/53 109/189/53
f  109/189/53 92/152/53 93/151/53
f  80/140/60 105/185/60 111/190/60
f  111/190/60 85/172/60 80/140/60
f  81/191/66 82/159/66 91/153/66
f  91/153/66 92/152/66 81/191/66
f  104/179/64 107/187/64 110/192/64
f  110/192/64 93/180/64 104/179/64
f  84/144/51 103/175/51 100/162/51
f  100/162/51 83/145/51 84/144/51
f  88/148/52 104/179/52 101/166/52
f  101/166/52 87/149/52 88/148/52
f  97/155/54 102/181/54 98/169/54
f  97/155/54 98/169/54 99/168/54
f  97/155/54 99/168/54 96/156/54
f  100/193/61 95/157/61 96/156/61
f  96/156/61 83/173/61 100/193/61
f  87/178/63 101/194/67 102/181/63
f  102/181/63 97/155/63 87/178/63
f  88/195/68 89/196/68 103/197/68
f  103/197/68 84/198/68 88/195/68
f  106/199/66 81/191/66 92/152/66
f  92/152/66 109/189/66 106/199/66
f  112/200/51 84/144/51 85/143/51
f  85/143/51 111/201/51 112/200/51
f  108/202/62 88/203/62 84/144/62
f  84/144/62 112/200/62 108/202/62
# object Rectangle002
g Rectangle002
v -39.29130 -15.35430 0.07870
v -39.29130 -15.35430 22.11760
v -36.29920 -15.35430 22.11760
v -36.29920 -15.35430 0.07870
v -39.37010 -19.22420 0.07870
v -39.37010 -19.22420 22.11760
v -39.37010 -15.43310 22.11760
v -39.37010 -15.43310 0.07870
v -38.90920 -19.68500 0.07870
v -38.90920 -19.68500 22.11760
v -39.29130 -19.68500 22.11760
v -39.29130 -19.68500 0.07870
v -36.22050 -15.43310 0.07870
v -36.22050 -15.43310 22.11760
v -36.22050 -19.60630 22.11760
v -36.22050 -19.60630 0.07870
v -39.29130 -19.60630 0.00000
v -39.29130 -19.30290 0.00000
v -38.98790 -19.60630 0.00000
v -36.29920 -15.43310 0.00000
v -39.29130 -15.43310 0.00000
v -39.37010 -19.60630 0.07870
v -36.29920 -19.68500 0.07870
v -36.29920 -19.60630 0.00000
v -39.37010 -19.60630 22.11760
v -36.29920 -19.68500 22.11760
v -39.29130 -15.35430 27.63740
v -36.29920 -15.35430 27.63740
v -36.29920 -19.68500 27.63740
v -38.90920 -19.68500 27.63740
v -36.22050 -15.43310 27.63740
v -36.22050 -19.60630 27.63740
v -39.37010 -15.43310 27.63740
v -39.37010 -19.22420 27.63740
# 34 verticies
vt -0.13240 -0.66957
vt 0.08799 -0.66957
vt 0.08799 -0.61177
vt -0.13240 -0.61177
vt -0.13240 -0.56518
vt 0.08799 -0.56518
vt 0.08799 -0.49194
vt -0.13240 -0.49194
vt 0.14240 -0.63977
vt -0.07799 -0.63977
vt -0.07799 -0.64715
vt 0.14240 -0.64715
vt 0.14240 -0.47563
vt -0.07799 -0.47563
vt -0.07799 -0.55626
vt 0.14240 -0.55626
vt 0.33378 -0.57215
vt 0.33457 -0.56629
vt 0.33085 -0.57058
vt -0.13240 -0.60984
vt -0.13319 -0.61136
vt -0.13319 -0.49153
vt -0.13240 -0.49001
vt 0.14319 -0.64756
vt 0.14240 -0.64908
vt 0.14240 -0.55818
vt 0.14319 -0.55666
vt 0.31588 -0.47452
vt 0.31568 -0.47604
vt 0.34458 -0.49153
vt 0.34479 -0.49001
vt 0.08799 -0.49001
vt 0.33553 -0.56518
vt 0.34534 -0.49194
vt -0.07799 -0.64908
vt 0.33358 -0.57367
vt 0.32988 -0.57169
vt -0.07799 -0.55818
vt 0.30412 -0.55626
vt 0.30488 -0.55666
vt 0.31492 -0.47563
vt 0.14319 -0.66957
vt 0.14319 -0.61177
vt -0.13319 -0.58935
vt -0.13319 -0.63977
vt -0.07799 -0.58935
vt -0.13319 -0.47563
vt -0.13319 -0.55626
vt 0.14319 -0.49194
vt 0.14319 -0.49001
vt 0.08799 -0.60984
vt -0.13319 -0.55818
vt -0.13240 -0.57256
vt 0.08799 -0.57256
vt 0.14240 -0.58935
vt 0.33454 -0.57256
vt 0.30468 -0.55818
vt -0.32454 -0.57256
vt -0.32358 -0.57367
vt -0.31988 -0.57169
vt -0.32553 -0.56518
vt 0.14319 -0.60984
vt 0.14319 -0.56518
vt -0.07799 -0.65106
vt -0.13319 -0.65106
# 65 texture verticies
vn 0.00000 1.00000 0.00000
vn -1.00000 0.00000 0.00000
vn 0.00000 -1.00000 0.00000
vn 1.00000 0.00000 0.00000
vn 0.00000 0.00000 -1.00000
vn 0.57735 0.57735 -0.57735
vn -0.57735 0.57735 -0.57735
vn -0.57735 -0.57735 -0.57735
vn 0.57735 -0.57735 -0.57735
vn 0.00000 0.70711 -0.70711
vn -0.70711 0.70711 0.00000
vn -0.70711 0.00000 -0.70711
vn -0.70711 -0.70711 0.00000
vn -0.00000 -0.70711 -0.70711
vn 0.00000 -0.70711 -0.70711
vn 0.70711 -0.70711 0.00000
vn 0.70711 0.00000 -0.70711
vn 0.70711 0.70711 0.00000
vn 0.00000 0.00000 1.00000
# 19 normals
f  113/204/69 114/205/69 115/206/69
f  115/206/69 116/207/69 113/204/69
f  117/208/70 118/209/70 119/210/70
f  119/210/70 120/211/70 117/208/70
f  121/212/71 122/213/71 123/214/71
f  123/214/71 124/215/71 121/212/71
f  125/216/72 126/217/72 127/218/72
f  127/218/72 128/219/72 125/216/72
f  129/220/73 130/221/73 131/222/73
f  116/207/74 125/223/74 132/224/74
f  133/225/75 120/211/75 113/226/75
f  129/227/76 124/215/76 134/228/76
f  128/219/77 135/229/77 136/230/77
f  116/231/78 132/232/78 133/233/78
f  133/233/78 113/234/78 116/231/78
f  120/211/79 119/210/79 114/235/79
f  114/235/79 113/226/79 120/211/79
f  133/233/80 130/221/80 117/236/80
f  117/236/80 120/237/80 133/233/80
f  124/215/81 123/214/81 137/238/81
f  137/238/81 134/228/81 124/215/81
f  124/239/82 129/220/83 131/222/83
f  131/222/83 121/240/83 124/239/82
f  128/219/84 127/218/84 138/241/84
f  138/241/84 135/229/84 128/219/84
f  128/242/85 136/243/85 132/232/85
f  132/232/85 125/244/85 128/242/85
f  139/245/69 140/246/69 115/206/69
f  115/206/69 114/205/69 139/245/69
f  141/247/71 142/248/71 122/213/71
f  122/213/71 138/249/71 141/247/71
f  143/250/72 144/251/72 127/218/72
f  127/218/72 126/217/72 143/250/72
f  145/252/79 139/253/79 114/235/79
f  114/235/79 119/210/79 145/252/79
f  125/223/86 116/207/86 115/206/86
f  115/206/86 126/254/86 125/223/86
f  144/251/84 141/255/84 138/241/84
f  138/241/84 127/218/84 144/251/84
f  134/256/70 137/257/70 118/209/70
f  118/209/70 117/208/70 134/256/70
f  135/258/71 138/249/71 122/213/71
f  122/213/71 121/212/71 135/258/71
f  132/232/73 136/243/73 131/222/73
f  133/233/73 132/232/73 131/222/73
f  130/221/73 133/233/73 131/222/73
f  130/221/80 129/220/80 134/259/80
f  134/259/80 117/236/80 130/221/80
f  136/243/83 135/260/83 121/240/83
f  121/240/83 131/222/83 136/243/83
f  137/261/87 123/262/87 122/263/87
f  122/263/87 118/264/87 137/261/87
f  126/254/86 115/206/86 140/246/86
f  140/246/86 143/265/86 126/254/86
f  119/210/70 118/209/70 146/266/70
f  146/266/70 145/252/70 119/210/70
f  118/267/81 122/213/81 142/248/81
f  142/248/81 146/268/81 118/267/81
# object Line001
g Line001
v -39.37010 -19.60630 27.63760
v -39.37010 -19.22420 27.63760
v -39.37010 -19.22420 22.11760
v -39.37010 -19.60630 22.11760
v -39.29130 -19.68500 27.63760
v -39.29130 -19.68500 22.11760
v -38.90920 -19.68500 27.63760
v -38.90920 -19.68500 22.11760
v -39.29130 -15.35430 27.67750
v -39.29130 -15.35430 27.63700
v -36.29920 -15.35430 27.63700
v -36.29920 -15.35430 27.67750
v -39.37010 -19.22420 27.67750
v -39.37010 -19.22420 27.63700
v -39.37010 -15.43310 27.63700
v -39.37010 -15.43310 27.67750
v -38.90920 -19.68500 27.67750
v -38.90920 -19.68500 27.63700
v -39.29130 -19.68500 27.63700
v -39.29130 -19.68500 27.67750
v -36.22050 -15.43310 27.67750
v -36.22050 -15.43310 27.63700
v -36.22050 -19.60630 27.63700
v -36.22050 -19.60630 27.67750
v -39.29130 -19.60630 27.75620
v -39.29130 -19.30290 27.75620
v -38.98790 -19.60630 27.75620
v -36.29920 -15.43310 27.75620
v -39.29130 -15.43310 27.75620
v -39.37010 -19.60630 27.67750
v -36.29920 -19.68500 27.67750
v -36.29920 -19.60630 27.75620
v -39.37010 -19.60630 27.63700
v -36.29920 -19.68500 27.63700
# 34 verticies
vt 2.58660 3.20070
vt 2.20450 3.20070
vt 2.20450 -2.31930
vt 2.58660 -2.31930
vt 2.66530 3.20070
vt 2.66530 -2.31930
vt -0.61390 3.20070
vt -0.99610 3.20070
vt -0.99610 -2.31930
vt -0.61390 -2.31930
vt -1.20450 3.20070
vt -1.66530 3.20070
vt -1.66530 -2.31930
vt -1.20450 -2.31930
vt 1.61390 -1.66530
vt 1.99610 -1.66530
vt 2.07480 -1.58660
vt 2.07480 -1.20450
vt -1.07480 -1.58660
vt -0.99610 -1.66530
vt -0.61390 -1.66530
vt -1.07480 -1.20450
vt -0.99610 3.24060
vt -0.99610 3.20010
vt 1.99610 3.20010
vt 1.99610 3.24060
vt -1.20450 3.24060
vt -1.20450 3.20010
vt 2.58660 3.20010
vt 2.58660 3.24060
vt 1.61390 3.24060
vt 1.61390 3.20010
vt -1.58660 3.24060
vt -1.58660 3.20010
vt 1.99610 -1.58660
vt 1.99610 -1.28320
vt 1.69270 -1.58660
vt -1.66540 3.24060
vt -1.58660 3.31930
vt -0.99610 3.31930
vt -1.07480 3.24060
vt 1.99610 3.31930
vt -1.07480 3.20010
vt 1.99610 2.58660
vt 2.07480 2.58660
vt -1.66540 3.20010
vt 1.69270 3.31930
vt -0.99610 -1.58660
vt -0.99610 2.58660
vt -1.07480 2.58660
vt -1.28320 3.31930
vt -0.99610 2.66540
vt -0.99610 -1.66540
vt -0.61390 -1.66540
vt 1.99610 -1.66540
vt 1.99610 2.66540
# 56 texture verticies
vn -1.00000 0.00000 0.00000
vn -0.70711 -0.70711 -0.00000
vn -0.70711 -0.70711 0.00000
vn 0.00000 -1.00000 0.00000
vn 0.70711 0.70711 0.00000
vn 0.00000 0.00000 -1.00000
vn 0.00000 0.00000 1.00000
vn 1.00000 0.00000 0.00000
vn 0.00000 1.00000 0.00000
vn -0.57735 -0.57735 -0.57735
vn 0.57735 -0.57735 -0.57735
vn 0.57735 0.57735 -0.57735
vn -0.57735 0.57735 -0.57735
vn 0.00000 -0.70711 -0.70711
vn 0.70711 -0.70711 0.00000
vn 0.70711 0.00000 -0.70711
vn 0.00000 0.70711 -0.70711
vn -0.70711 0.70711 0.00000
vn -0.70711 0.00000 -0.70711
# 19 normals
usemtl Steel
f  147/269/88 148/270/88 149/271/88
f  149/271/88 150/272/88 147/269/88
f  151/273/89 147/269/89 150/272/89
f  150/272/89 152/274/90 151/273/89
f  153/275/91 151/276/91 152/277/91
f  152/277/91 154/278/91 153/275/91
f  148/279/92 153/280/92 154/281/92
f  154/281/92 149/282/92 148/279/92
f  154/283/93 152/284/93 150/285/93
f  150/285/93 149/286/93 154/283/93
f  147/287/94 151/288/94 153/289/94
f  153/289/94 148/290/94 147/287/94
f  155/291/91 156/292/91 157/293/91
f  157/293/91 158/294/91 155/291/91
f  159/295/95 160/296/95 161/297/95
f  161/297/95 162/298/95 159/295/95
f  163/299/96 164/300/96 165/293/96
f  165/293/96 166/294/96 163/299/96
f  167/301/88 168/302/88 169/297/88
f  169/297/88 170/298/88 167/301/88
f  171/303/93 172/304/93 173/305/93
f  158/306/97 167/301/97 174/307/97
f  175/308/98 162/309/98 155/291/98
f  171/307/99 166/306/99 176/301/99
f  170/309/100 177/291/100 178/308/100
f  158/294/101 174/310/101 175/308/101
f  175/308/101 155/291/101 158/294/101
f  162/309/102 161/311/102 156/292/102
f  156/292/102 155/291/102 162/309/102
f  175/312/103 172/304/103 159/286/103
f  159/286/103 162/313/103 175/312/103
f  166/306/92 165/314/92 179/302/92
f  179/302/92 176/301/92 166/306/92
f  166/294/104 171/310/104 173/315/104
f  173/315/104 163/299/104 166/294/104
f  170/309/105 169/311/105 180/292/105
f  180/292/105 177/291/105 170/309/105
f  170/287/106 178/316/106 174/317/106
f  174/317/106 167/318/106 170/287/106
f  176/301/95 179/302/95 160/296/95
f  160/296/95 159/295/95 176/301/95
f  177/291/96 180/292/96 164/300/96
f  164/300/96 163/299/96 177/291/96
f  174/317/93 178/316/93 173/305/93
f  175/312/93 174/317/93 173/305/93
f  172/304/93 175/312/93 173/305/93
f  172/319/103 171/307/103 176/301/103
f  176/301/103 159/295/103 172/319/103
f  178/308/104 177/291/104 163/299/104
f  163/299/104 173/315/104 178/308/104
f  167/301/90 158/306/90 157/314/90
f  157/314/90 168/302/90 167/301/90
f  156/320/94 161/318/94 160/290/94
f  160/290/94 179/287/94 165/321/94
f  156/320/94 160/290/94 165/321/94
f  164/322/94 180/323/94 169/285/94
f  165/321/94 164/322/94 169/285/94
f  156/320/94 165/321/94 169/285/94
f  156/320/94 169/285/94 168/313/94
f  156/320/94 168/313/94 157/324/94
# object Rectangle003
g Rectangle003
v -39.29130 15.35430 0.07870
v -39.29130 15.35430 22.11760
v -36.29920 15.35430 22.11760
v -36.29920 15.35430 0.07870
v -39.37010 19.22420 0.07870
v -39.37010 19.22420 22.11760
v -39.37010 15.43310 22.11760
v -39.37010 15.43310 0.07870
v -38.90920 19.68500 0.07870
v -38.90920 19.68500 22.11760
v -39.29130 19.68500 22.11760
v -39.29130 19.68500 0.07870
v -36.22050 15.43310 0.07870
v -36.22050 15.43310 22.11760
v -36.22050 19.60630 22.11760
v -36.22050 19.60630 0.07870
v -39.29130 19.60630 0.00000
v -39.29130 19.30290 0.00000
v -38.98790 19.60630 0.00000
v -36.29920 15.43310 0.00000
v -39.29130 15.43310 0.00000
v -39.37010 19.60630 0.07870
v -36.29920 19.68500 0.07870
v -36.29920 19.60630 0.00000
v -39.37010 19.60630 22.11760
v -36.29920 19.68500 22.11760
v -39.29130 15.35430 27.63740
v -36.29920 15.35430 27.63740
v -36.29920 19.68500 27.63740
v -38.90920 19.68500 27.63740
v -36.22050 15.43310 27.63740
v -36.22050 19.60630 27.63740
v -39.37010 15.43310 27.63740
v -39.37010 19.22410 27.63740
# 34 verticies
vt -0.07799 -0.77073
vt -0.07799 -0.82853
vt 0.14240 -0.82853
vt 0.14240 -0.77073
vt 0.08799 0.10435
vt 0.08799 0.17759
vt -0.13240 0.17759
vt -0.13240 0.10435
vt 0.08799 -0.85095
vt 0.08799 -0.84357
vt -0.13240 -0.84357
vt -0.13240 -0.85095
vt -0.07799 0.20127
vt -0.07799 0.12065
vt 0.14240 0.12065
vt 0.14240 0.20127
vt 0.43234 0.18695
vt 0.43449 0.17952
vt 0.43527 0.18538
vt 0.14319 0.12025
vt 0.14240 0.11872
vt 0.14240 -0.83046
vt 0.14319 -0.82894
vt -0.13240 0.18497
vt -0.13240 0.18690
vt -0.13319 0.18538
vt -0.13319 -0.79274
vt -0.13240 -0.79314
vt -0.13240 -0.79122
vt 0.42447 0.10476
vt 0.39557 0.12025
vt 0.39536 0.11872
vt 0.42426 0.10324
vt -0.07799 -0.83046
vt 0.43504 0.17759
vt 0.42523 0.10435
vt 0.08799 0.18497
vt 0.08799 0.18690
vt 0.43547 0.18690
vt 0.43178 0.18888
vt 0.08799 -0.79314
vt 0.08799 -0.79122
vt 0.40637 0.20087
vt 0.40561 0.20127
vt 0.39481 0.12065
vt -0.13319 -0.77073
vt -0.13319 -0.82853
vt 0.14319 -0.84357
vt 0.14319 -0.79314
vt -0.13319 0.20127
vt -0.13319 0.12065
vt -0.13319 -0.83046
vt -0.07799 0.11872
vt 0.14319 -0.79122
vt 0.43603 0.18497
vt 0.40657 0.20239
vt -0.42178 0.18888
vt -0.42547 0.18690
vt -0.42603 0.18497
vt -0.42504 0.17759
vt -0.13319 0.11872
vt 0.14319 0.17759
vt 0.14319 0.10435
vt 0.14319 0.18888
vt 0.08799 0.18888
# 65 texture verticies
vn -0.00000 -1.00000 -0.00000
vn -1.00000 0.00000 0.00000
vn 0.00000 1.00000 0.00000
vn 1.00000 0.00000 0.00000
vn 0.00000 0.00000 -1.00000
vn 0.57735 -0.57735 -0.57735
vn -0.57738 -0.57728 -0.57738
vn -0.57738 0.57738 -0.57728
vn 0.57738 0.57738 -0.57728
vn -0.00000 -0.70711 -0.70711
vn -0.70711 -0.70711 -0.00000
vn -0.70711 0.00000 -0.70711
vn -0.70711 0.70711 0.00000
vn 0.00000 0.70711 -0.70711
vn 0.70711 0.70711 0.00000
vn 0.70711 0.00000 -0.70711
vn 0.70711 -0.70711 0.00000
vn 0.00000 0.00000 1.00000
# 18 normals
usemtl Wood
f  183/325/107 182/326/107 181/327/107
f  181/327/107 184/328/107 183/325/107
f  187/329/108 186/330/108 185/331/108
f  185/331/108 188/332/108 187/329/108
f  191/333/109 190/334/109 189/335/109
f  189/335/109 192/336/109 191/333/109
f  195/337/110 194/338/110 193/339/110
f  193/339/110 196/340/110 195/337/110
f  199/341/111 198/342/111 197/343/111
f  200/344/112 193/339/112 184/345/112
f  181/327/113 188/346/113 201/347/113
f  202/348/114 192/349/114 197/350/114
f  204/351/115 203/352/115 196/353/115
f  201/354/116 200/355/116 184/356/116
f  184/356/116 181/357/116 201/354/116
f  182/326/117 187/358/117 188/346/117
f  188/346/117 181/327/117 182/326/117
f  185/359/118 198/342/118 201/354/118
f  201/354/118 188/360/118 185/359/118
f  205/361/119 191/362/119 192/349/119
f  192/349/119 202/348/119 205/361/119
f  199/341/120 197/343/120 192/363/120
f  192/363/120 189/364/120 199/341/120
f  206/365/121 195/366/121 196/353/121
f  196/353/121 203/352/121 206/365/121
f  200/355/122 204/367/122 196/368/122
f  196/368/122 193/369/122 200/355/122
f  183/325/107 208/370/107 207/371/107
f  207/371/107 182/326/107 183/325/107
f  190/334/109 210/372/109 209/373/109
f  209/373/109 206/365/109 190/334/109
f  195/337/110 212/374/110 211/375/110
f  211/375/110 194/338/110 195/337/110
f  182/326/117 207/371/117 213/376/117
f  213/376/117 187/358/117 182/326/117
f  183/377/123 184/345/123 193/339/123
f  193/339/123 194/338/123 183/377/123
f  206/365/121 209/373/121 212/378/121
f  212/378/121 195/366/121 206/365/121
f  186/330/108 205/361/108 202/348/108
f  202/348/108 185/331/108 186/330/108
f  190/334/109 206/365/109 203/352/109
f  203/352/109 189/335/109 190/334/109
f  199/341/111 204/367/111 200/355/111
f  199/341/111 200/355/111 201/354/111
f  199/341/111 201/354/111 198/342/111
f  202/379/118 197/343/118 198/342/118
f  198/342/118 185/359/118 202/379/118
f  189/364/120 203/380/120 204/367/120
f  204/367/120 199/341/120 189/364/120
f  190/381/124 191/382/124 205/383/124
f  205/383/124 186/384/124 190/381/124
f  208/385/123 183/377/123 194/338/123
f  194/338/123 211/375/123 208/385/123
f  214/386/108 186/330/108 187/329/108
f  187/329/108 213/387/108 214/386/108
f  210/388/119 190/389/119 186/330/119
f  186/330/119 214/386/119 210/388/119
# object Line002
g Line002
v -39.37010 19.60630 27.63760
v -39.37010 19.22410 27.63760
v -39.37010 19.22410 22.11760
v -39.37010 19.60630 22.11760
v -39.29130 19.68500 27.63760
v -39.29130 19.68500 22.11760
v -38.90920 19.68500 27.63760
v -38.90920 19.68500 22.11760
v -39.29130 15.35430 27.67750
v -39.29130 15.35430 27.63700
v -36.29920 15.35430 27.63700
v -36.29920 15.35430 27.67750
v -39.37010 19.22420 27.67750
v -39.37010 19.22420 27.63700
v -39.37010 15.43310 27.63700
v -39.37010 15.43310 27.67750
v -38.90920 19.68500 27.67750
v -38.90920 19.68500 27.63700
v -39.29130 19.68500 27.63700
v -39.29130 19.68500 27.67750
v -36.22050 15.43310 27.67750
v -36.22050 15.43310 27.63700
v -36.22050 19.60630 27.63700
v -36.22050 19.60630 27.67750
v -39.29130 19.60630 27.75620
v -39.29130 19.30290 27.75620
v -38.98790 19.60630 27.75620
v -36.29920 15.43310 27.75620
v -39.29130 15.43310 27.75620
v -39.37010 19.60630 27.67750
v -36.29920 19.68500 27.67750
v -36.29920 19.60630 27.75620
v -39.37010 19.60630 27.63700
v -36.29920 19.68500 27.63700
# 34 verticies
vt 2.20450 -2.31930
vt 2.20450 3.20070
vt 2.58660 3.20070
vt 2.58660 -2.31930
vt 2.66530 3.20070
vt 2.66530 -2.31930
vt -0.99610 -2.31930
vt -0.99610 3.20070
vt -0.61390 3.20070
vt -0.61390 -2.31930
vt -1.66530 -2.31930
vt -1.66530 3.20070
vt -1.20450 3.20070
vt -1.20450 -2.31930
vt 2.07480 -1.58660
vt 1.99610 -1.66530
vt 1.61390 -1.66530
vt 2.07480 -1.20450
vt -0.61390 -1.66530
vt -0.99610 -1.66530
vt -1.07480 -1.58660
vt -1.07480 -1.20450
vt 1.99610 3.20010
vt -0.99610 3.20010
vt -0.99610 3.24060
vt 1.99610 3.24060
vt 2.58660 3.20010
vt -1.20450 3.20010
vt -1.20450 3.24060
vt 2.58660 3.24060
vt 1.61390 3.20010
vt 1.61390 3.24060
vt -1.58660 3.20010
vt -1.58660 3.24060
vt 1.69270 -1.58660
vt 1.99610 -1.28320
vt 1.99610 -1.58660
vt -1.58660 3.31930
vt -1.66540 3.24060
vt -1.07480 3.24060
vt -0.99610 3.31930
vt 1.99610 3.31930
vt -1.07480 3.20010
vt 1.99610 2.58660
vt 2.07480 2.58660
vt -1.66540 3.20010
vt 1.69270 3.31930
vt -0.99610 2.58660
vt -0.99610 -1.58660
vt -1.07480 2.58660
vt -1.28320 3.31930
vt -0.99610 2.66540
vt -0.99610 -1.66540
vt 1.99610 -1.66540
vt -0.61390 -1.66540
vt 1.99610 2.66540
# 56 texture verticies
vn -1.00000 0.00000 0.00000
vn -0.70711 0.70711 0.00000
vn 0.00000 1.00000 0.00000
vn 0.70711 -0.70711 0.00000
vn 0.00000 0.00000 -1.00000
vn 0.00000 0.00000 1.00000
vn 1.00000 0.00000 0.00000
vn -0.00000 -1.00000 -0.00000
vn -0.57735 0.57735 -0.57735
vn 0.57735 0.57735 -0.57735
vn 0.57735 -0.57735 -0.57735
vn -0.57738 -0.57728 -0.57738
vn 0.00000 0.70711 -0.70711
vn 0.70711 0.70711 0.00000
vn 0.70711 0.00000 -0.70711
vn -0.00000 -0.70711 -0.70711
vn -0.70711 -0.70711 -0.00000
vn -0.70711 0.00000 -0.70711
vn 0.00000 0.00000 1.00000
# 19 normals
usemtl Steel
f  217/390/125 216/391/125 215/392/125
f  215/392/125 218/393/125 217/390/125
f  218/393/126 215/392/126 219/394/126
f  219/394/126 220/395/126 218/393/126
f  220/396/127 219/397/127 221/398/127
f  221/398/127 222/399/127 220/396/127
f  222/400/128 221/401/128 216/402/128
f  216/402/128 217/403/128 222/400/128
f  218/404/129 220/405/129 222/406/129
f  222/406/129 217/407/129 218/404/129
f  221/408/130 219/409/130 215/410/130
f  215/410/130 216/411/130 221/408/130
f  225/412/127 224/413/127 223/414/127
f  223/414/127 226/415/127 225/412/127
f  229/416/131 228/417/131 227/418/131
f  227/418/131 230/419/131 229/416/131
f  233/412/132 232/420/132 231/421/132
f  231/421/132 234/415/132 233/412/132
f  237/416/125 236/422/125 235/423/125
f  235/423/125 238/419/125 237/416/125
f  241/424/129 240/425/129 239/426/129
f  242/427/133 235/423/133 226/428/133
f  223/414/134 230/429/134 243/430/134
f  244/423/135 234/428/135 239/427/135
f  246/430/136 245/414/136 238/429/136
f  243/430/137 242/431/137 226/415/137
f  226/415/137 223/414/137 243/430/137
f  224/413/138 229/432/138 230/429/138
f  230/429/138 223/414/138 224/413/138
f  227/407/139 240/425/139 243/433/139
f  243/433/139 230/434/139 227/407/139
f  247/422/128 233/435/128 234/428/128
f  234/428/128 244/423/128 247/422/128
f  241/436/140 239/431/140 234/415/140
f  234/415/140 231/421/140 241/436/140
f  248/413/141 237/432/141 238/429/141
f  238/429/141 245/414/141 248/413/141
f  242/437/142 246/438/142 238/410/142
f  238/410/142 235/439/142 242/437/142
f  228/417/131 247/422/131 244/423/131
f  244/423/131 227/418/131 228/417/131
f  232/420/132 248/413/132 245/414/132
f  245/414/132 231/421/132 232/420/132
f  241/424/129 246/438/129 242/437/129
f  241/424/129 242/437/129 243/433/129
f  241/424/129 243/433/129 240/425/129
f  244/423/139 239/427/139 240/440/139
f  240/440/139 227/418/139 244/423/139
f  231/421/140 245/414/140 246/430/140
f  246/430/140 241/436/140 231/421/140
f  225/435/126 226/428/126 235/423/126
f  235/423/126 236/422/126 225/435/126
f  228/411/130 229/439/130 224/441/143
f  233/442/130 247/410/130 228/411/130
f  233/442/130 228/411/130 224/441/143
f  237/404/143 248/443/130 232/444/130
f  237/404/143 232/444/130 233/442/130
f  237/404/143 233/442/130 224/441/143
f  236/434/143 237/404/143 224/441/143
f  225/445/143 236/434/143 224/441/143
# object Rectangle004
g Rectangle004
v 39.29130 15.35430 0.07870
v 39.29130 15.35430 22.11760
v 36.29920 15.35430 22.11760
v 36.29920 15.35430 0.07870
v 39.37010 19.22420 0.07870
v 39.37010 19.22420 22.11760
v 39.37010 15.43310 22.11760
v 39.37010 15.43310 0.07870
v 38.90920 19.68500 0.07870
v 38.90920 19.68500 22.11760
v 39.29130 19.68500 22.11760
v 39.29130 19.68500 0.07870
v 36.22050 15.43310 0.07870
v 36.22050 15.43310 22.11760
v 36.22050 19.60630 22.11760
v 36.22050 19.60630 0.07870
v 39.29130 19.60630 0.00000
v 39.29130 19.30290 0.00000
v 38.98790 19.60630 0.00000
v 36.29920 15.43310 0.00000
v 39.29130 15.43310 0.00000
v 39.37010 19.60630 0.07870
v 36.29920 19.68500 0.07870
v 36.29920 19.60630 0.00000
v 39.37010 19.60630 22.11760
v 36.29920 19.68500 22.11760
v 39.29130 15.35430 27.63740
v 36.29920 15.35430 27.63740
v 36.29920 19.68500 27.63740
v 38.90920 19.68500 27.63740
v 36.22050 15.43310 27.63740
v 36.22050 19.60630 27.63740
v 39.37010 15.43310 27.63740
v 39.37010 19.22420 27.63740
# 34 verticies
vt 0.14240 0.68957
vt -0.07799 0.68957
vt -0.07799 0.63177
vt 0.14240 0.63177
vt 0.14240 0.58518
vt -0.07799 0.58518
vt -0.07799 0.51194
vt 0.14240 0.51194
vt -0.13240 0.65977
vt 0.08799 0.65977
vt 0.08799 0.66715
vt -0.13240 0.66715
vt -0.13240 0.49563
vt 0.08799 0.49563
vt 0.08799 0.57626
vt -0.13240 0.57626
vt -0.32378 0.59215
vt -0.32457 0.58629
vt -0.32085 0.59058
vt 0.14240 0.62984
vt 0.14319 0.63136
vt 0.14319 0.51153
vt 0.14240 0.51001
vt -0.13319 0.66756
vt -0.13240 0.66908
vt -0.13240 0.57818
vt -0.13319 0.57666
vt -0.30588 0.49452
vt -0.30568 0.49604
vt -0.33458 0.51153
vt -0.33478 0.51001
vt -0.07799 0.51001
vt -0.32553 0.58518
vt -0.33534 0.51194
vt 0.08799 0.66908
vt -0.32358 0.59367
vt -0.31988 0.59169
vt 0.08799 0.57818
vt -0.29412 0.57626
vt -0.29488 0.57666
vt -0.30492 0.49563
vt -0.13319 0.68957
vt -0.13319 0.63177
vt 0.14319 0.60935
vt 0.14319 0.65977
vt 0.08799 0.60935
vt 0.14319 0.49563
vt 0.14319 0.57626
vt -0.13319 0.51194
vt -0.13319 0.51001
vt -0.07799 0.62984
vt 0.14319 0.57818
vt 0.14240 0.59256
vt -0.07799 0.59256
vt -0.13240 0.60935
vt -0.32454 0.59256
vt -0.29467 0.57818
vt 0.33454 0.59256
vt 0.33358 0.59367
vt 0.32988 0.59169
vt 0.33553 0.58518
vt -0.13319 0.62984
vt -0.13319 0.58518
vt 0.08799 0.67106
vt 0.14319 0.67106
# 65 texture verticies
vn 0.00000 -1.00000 0.00000
vn 1.00000 0.00000 0.00000
vn 0.00000 1.00000 0.00000
vn -1.00000 0.00000 0.00000
vn 0.00000 0.00000 -1.00000
vn -0.57735 -0.57735 -0.57735
vn 0.57735 -0.57735 -0.57735
vn 0.57735 0.57735 -0.57735
vn -0.57735 0.57735 -0.57735
vn -0.00000 -0.70711 -0.70711
vn 0.70711 -0.70711 0.00000
vn 0.70711 0.00000 -0.70711
vn 0.70711 0.70711 0.00000
vn 0.00000 0.70711 -0.70711
vn -0.70711 0.70711 0.00000
vn -0.70711 0.00000 -0.70711
vn -0.70711 -0.70711 0.00000
vn 0.00000 0.00000 1.00000
# 18 normals
usemtl Wood
f  249/446/144 250/447/144 251/448/144
f  251/448/144 252/449/144 249/446/144
f  253/450/145 254/451/145 255/452/145
f  255/452/145 256/453/145 253/450/145
f  257/454/146 258/455/146 259/456/146
f  259/456/146 260/457/146 257/454/146
f  261/458/147 262/459/147 263/460/147
f  263/460/147 264/461/147 261/458/147
f  265/462/148 266/463/148 267/464/148
f  252/449/149 261/465/149 268/466/149
f  269/467/150 256/453/150 249/468/150
f  265/469/151 260/457/151 270/470/151
f  264/461/152 271/471/152 272/472/152
f  252/473/153 268/474/153 269/475/153
f  269/475/153 249/476/153 252/473/153
f  256/453/154 255/452/154 250/477/154
f  250/477/154 249/468/154 256/453/154
f  269/475/155 266/463/155 253/478/155
f  253/478/155 256/479/155 269/475/155
f  260/457/156 259/456/156 273/480/156
f  273/480/156 270/470/156 260/457/156
f  260/481/157 265/462/157 267/464/157
f  267/464/157 257/482/157 260/481/157
f  264/461/158 263/460/158 274/483/158
f  274/483/158 271/471/158 264/461/158
f  264/484/159 272/485/159 268/474/159
f  268/474/159 261/486/159 264/484/159
f  275/487/144 276/488/144 251/448/144
f  251/448/144 250/447/144 275/487/144
f  277/489/146 278/490/146 258/455/146
f  258/455/146 274/491/146 277/489/146
f  279/492/147 280/493/147 263/460/147
f  263/460/147 262/459/147 279/492/147
f  281/494/154 275/495/154 250/477/154
f  250/477/154 255/452/154 281/494/154
f  261/465/160 252/449/160 251/448/160
f  251/448/160 262/496/160 261/465/160
f  280/493/158 277/497/158 274/483/158
f  274/483/158 263/460/158 280/493/158
f  270/498/145 273/499/145 254/451/145
f  254/451/145 253/450/145 270/498/145
f  271/500/146 274/491/146 258/455/146
f  258/455/146 257/454/146 271/500/146
f  268/474/148 272/485/148 267/464/148
f  269/475/148 268/474/148 267/464/148
f  266/463/148 269/475/148 267/464/148
f  266/463/155 265/462/155 270/501/155
f  270/501/155 253/478/155 266/463/155
f  272/485/157 271/502/157 257/482/157
f  257/482/157 267/464/157 272/485/157
f  273/503/161 259/504/161 258/505/161
f  258/505/161 254/506/161 273/503/161
f  262/496/160 251/448/160 276/488/160
f  276/488/160 279/507/160 262/496/160
f  255/452/145 254/451/145 282/508/145
f  282/508/145 281/494/145 255/452/145
f  254/509/156 258/455/156 278/490/156
f  278/490/156 282/510/156 254/509/156
# object Line003
g Line003
v 39.37010 19.60630 27.63760
v 39.37010 19.22420 27.63760
v 39.37010 19.22420 22.11760
v 39.37010 19.60630 22.11760
v 39.29130 19.68500 27.63760
v 39.29130 19.68500 22.11760
v 38.90920 19.68500 27.63760
v 38.90920 19.68500 22.11760
v 39.29130 15.35430 27.67750
v 39.29130 15.35430 27.63700
v 36.29920 15.35430 27.63700
v 36.29920 15.35430 27.67750
v 39.37010 19.22420 27.67750
v 39.37010 19.22420 27.63700
v 39.37010 15.43310 27.63700
v 39.37010 15.43310 27.67750
v 38.90920 19.68500 27.67750
v 38.90920 19.68500 27.63700
v 39.29130 19.68500 27.63700
v 39.29130 19.68500 27.67750
v 36.22050 15.43310 27.67750
v 36.22050 15.43310 27.63700
v 36.22050 19.60630 27.63700
v 36.22050 19.60630 27.67750
v 39.29130 19.60630 27.75620
v 39.29130 19.30290 27.75620
v 38.98790 19.60630 27.75620
v 36.29920 15.43310 27.75620
v 39.29130 15.43310 27.75620
v 39.37010 19.60630 27.67750
v 36.29920 19.68500 27.67750
v 36.29920 19.60630 27.75620
v 39.37010 19.60630 27.63700
v 36.29920 19.68500 27.63700
# 34 verticies
vt 2.58660 3.20070
vt 2.20450 3.20070
vt 2.20450 -2.31930
vt 2.58660 -2.31930
vt 2.66530 3.20070
vt 2.66530 -2.31930
vt -0.61390 3.20070
vt -0.99610 3.20070
vt -0.99610 -2.31930
vt -0.61390 -2.31930
vt -1.20450 3.20070
vt -1.66530 3.20070
vt -1.66530 -2.31930
vt -1.20450 -2.31930
vt 1.61390 -1.66530
vt 1.99610 -1.66530
vt 2.07480 -1.58660
vt 2.07480 -1.20450
vt -1.07480 -1.58660
vt -0.99610 -1.66530
vt -0.61390 -1.66530
vt -1.07480 -1.20450
vt -0.99610 3.24060
vt -0.99610 3.20010
vt 1.99610 3.20010
vt 1.99610 3.24060
vt -1.20450 3.24060
vt -1.20450 3.20010
vt 2.58660 3.20010
vt 2.58660 3.24060
vt 1.61390 3.24060
vt 1.61390 3.20010
vt -1.58660 3.24060
vt -1.58660 3.20010
vt 1.99610 -1.58660
vt 1.99610 -1.28320
vt 1.69270 -1.58660
vt -1.66540 3.24060
vt -1.58660 3.31930
vt -0.99610 3.31930
vt -1.07480 3.24060
vt 1.99610 3.31930
vt -1.07480 3.20010
vt 1.99610 2.58660
vt 2.07480 2.58660
vt -1.66540 3.20010
vt 1.69270 3.31930
vt -0.99610 -1.58660
vt -0.99610 2.58660
vt -1.07480 2.58660
vt -1.28320 3.31930
vt -0.99610 2.66540
vt -0.99610 -1.66540
vt -0.61390 -1.66540
vt 1.99610 -1.66540
vt 1.99610 2.66540
# 56 texture verticies
vn 1.00000 0.00000 0.00000
vn 0.70711 0.70711 0.00000
vn 0.70711 0.70711 0.00000
vn 0.00000 1.00000 0.00000
vn -0.70711 -0.70711 0.00000
vn 0.00000 0.00000 -1.00000
vn 0.00000 0.00000 1.00000
vn -1.00000 0.00000 0.00000
vn 0.00000 -1.00000 0.00000
vn 0.57735 0.57735 -0.57735
vn -0.57735 0.57735 -0.57735
vn -0.57735 -0.57735 -0.57735
vn 0.57735 -0.57735 -0.57735
vn 0.00000 0.70711 -0.70711
vn -0.70711 0.70711 0.00000
vn -0.70711 0.00000 -0.70711
vn -0.00000 -0.70711 -0.70711
vn 0.70711 -0.70711 0.00000
vn 0.70711 0.00000 -0.70711
vn 0.00000 0.00000 1.00000
# 20 normals
usemtl Steel
f  283/511/162 284/512/162 285/513/162
f  285/513/162 286/514/162 283/511/162
f  287/515/163 283/511/163 286/514/163
f  286/514/163 288/516/164 287/515/163
f  289/517/165 287/518/165 288/519/165
f  288/519/165 290/520/165 289/517/165
f  284/521/166 289/522/166 290/523/166
f  290/523/166 285/524/166 284/521/166
f  290/525/167 288/526/167 286/527/167
f  286/527/167 285/528/167 290/525/167
f  283/529/168 287/530/168 289/531/168
f  289/531/168 284/532/168 283/529/168
f  291/533/165 292/534/165 293/535/165
f  293/535/165 294/536/165 291/533/165
f  295/537/169 296/538/169 297/539/169
f  297/539/169 298/540/169 295/537/169
f  299/541/170 300/542/170 301/535/170
f  301/535/170 302/536/170 299/541/170
f  303/543/162 304/544/162 305/539/162
f  305/539/162 306/540/162 303/543/162
f  307/545/167 308/546/167 309/547/167
f  294/548/171 303/543/171 310/549/171
f  311/550/172 298/551/172 291/533/172
f  307/549/173 302/548/173 312/543/173
f  306/551/174 313/533/174 314/550/174
f  294/536/175 310/552/175 311/550/175
f  311/550/175 291/533/175 294/536/175
f  298/551/176 297/553/176 292/534/176
f  292/534/176 291/533/176 298/551/176
f  311/554/177 308/546/177 295/528/177
f  295/528/177 298/555/177 311/554/177
f  302/548/166 301/556/166 315/544/166
f  315/544/166 312/543/166 302/548/166
f  302/536/178 307/552/178 309/557/178
f  309/557/178 299/541/178 302/536/178
f  306/551/179 305/553/179 316/534/179
f  316/534/179 313/533/179 306/551/179
f  306/529/180 314/558/180 310/559/180
f  310/559/180 303/560/180 306/529/180
f  312/543/169 315/544/169 296/538/169
f  296/538/169 295/537/169 312/543/169
f  313/533/170 316/534/170 300/542/170
f  300/542/170 299/541/170 313/533/170
f  310/559/167 314/558/167 309/547/167
f  311/554/167 310/559/167 309/547/167
f  308/546/167 311/554/167 309/547/167
f  308/561/177 307/549/177 312/543/177
f  312/543/177 295/537/177 308/561/177
f  314/550/178 313/533/178 299/541/178
f  299/541/178 309/557/178 314/550/178
f  303/543/164 294/548/164 293/556/164
f  293/556/164 304/544/164 303/543/164
f  292/562/181 297/560/168 296/532/168
f  296/532/168 315/529/168 301/563/168
f  292/562/181 296/532/168 301/563/168
f  300/564/168 316/565/168 305/527/181
f  301/563/168 300/564/168 305/527/181
f  292/562/181 301/563/168 305/527/181
f  292/562/181 305/527/181 304/555/181
f  292/562/181 304/555/181 293/566/181
